<svg width="124" height="64" viewBox="0 0 124 64" fill="none" xmlns="http://www.w3.org/2000/svg">
<g clip-path="url(#clip0_370_43)">
<path d="M9.59569 47.6527C0.982487 38.6957 1.26122 24.4522 10.2182 15.839C19.1752 7.22581 33.4187 7.50452 42.0319 16.4615C45.6505 20.2246 47.6984 24.9209 48.1939 29.7407L43.1819 29.9078C42.736 26.2814 41.1553 22.7636 38.4279 19.9272C31.7287 12.9607 20.6505 12.7439 13.6839 19.443C6.71736 26.1422 6.50056 37.2205 13.1997 44.187C19.8989 51.1535 30.9772 51.3703 37.9437 44.6712C41.1217 41.6152 42.8939 37.6477 43.2469 33.5752L48.2578 33.6407C47.8809 39.0055 45.5911 44.254 41.4094 48.2753C32.4524 56.8884 18.2089 56.6096 9.59569 47.6527Z" fill="#28FC8B"/>
<path d="M15.1094 42.3505C9.42513 36.4391 9.60861 27.038 15.5196 21.3533L15.7996 21.0908C21.7244 15.6756 30.9216 15.9452 36.5175 21.7642L36.7793 22.0435C38.8758 24.3372 40.1201 27.1215 40.5204 29.9972L37.1982 30.1083C36.823 27.9039 35.8056 25.7847 34.139 24.0514C29.7175 19.4537 22.4047 19.3105 17.8068 23.7318C13.2095 28.1533 13.0669 35.4655 17.4879 40.0633C21.9092 44.6608 29.2208 44.8037 33.8187 40.3829C35.8023 38.4754 36.9555 36.0296 37.2721 33.4961L40.5899 33.5396C40.2516 36.9273 38.7522 40.2167 36.1059 42.7614C30.1944 48.4454 20.794 48.2617 15.1094 42.3505Z" fill="#28FC8B"/>
<path d="M19.3913 38.233C15.9805 34.6861 16.0909 29.0454 19.6378 25.6346C23.1848 22.2238 28.8255 22.3342 32.2363 25.8811C32.7788 26.4453 33.2309 27.0632 33.5955 27.7159L24.7603 31.6828L33.6442 36.3115C33.2181 37.0952 32.667 37.8283 31.9898 38.4796C28.4428 41.8903 22.8022 41.7799 19.3913 38.233Z" fill="#28FC8B"/>
<path d="M110.686 41.0925L103.375 31.5785L110.098 23.2762" stroke="#28FC8B" stroke-width="2.65"/>
<path d="M116.306 41.2024L108.996 31.6884L115.718 23.3861" stroke="#28FC8B" stroke-width="2.65"/>
<path d="M121.927 41.3123L114.616 31.7982L121.338 23.4959" stroke="#28FC8B" stroke-width="2.65"/>
<path d="M49.654 29.8776C48.342 29.8776 47.2647 29.5683 46.422 28.9496C45.5793 28.3203 45.126 27.4243 45.062 26.2616H48.406C48.438 26.6563 48.5553 26.9443 48.758 27.1256C48.9607 27.307 49.222 27.3976 49.542 27.3976C49.83 27.3976 50.0647 27.3283 50.246 27.1896C50.438 27.0403 50.534 26.8376 50.534 26.5816C50.534 26.251 50.3793 25.995 50.07 25.8136C49.7607 25.6323 49.2593 25.4296 48.566 25.2056C47.83 24.9603 47.2327 24.7256 46.774 24.5016C46.326 24.267 45.9313 23.931 45.59 23.4936C45.2593 23.0456 45.094 22.4643 45.094 21.7496C45.094 21.0243 45.2753 20.4056 45.638 19.8936C46.0007 19.371 46.502 18.9763 47.142 18.7096C47.782 18.443 48.5073 18.3096 49.318 18.3096C50.63 18.3096 51.6753 18.619 52.454 19.2376C53.2433 19.8456 53.6647 20.7043 53.718 21.8136H50.31C50.2993 21.4723 50.1927 21.2163 49.99 21.0456C49.798 20.875 49.5473 20.7896 49.238 20.7896C49.0033 20.7896 48.8113 20.859 48.662 20.9976C48.5127 21.1363 48.438 21.3336 48.438 21.5896C48.438 21.803 48.518 21.9896 48.678 22.1496C48.8487 22.299 49.0567 22.4323 49.302 22.5496C49.5473 22.6563 49.91 22.795 50.39 22.9656C51.1047 23.211 51.6913 23.4563 52.15 23.7016C52.6193 23.9363 53.0193 24.2723 53.35 24.7096C53.6913 25.1363 53.862 25.6803 53.862 26.3416C53.862 27.0136 53.6913 27.6163 53.35 28.1496C53.0193 28.683 52.534 29.1043 51.894 29.4136C51.2647 29.723 50.518 29.8776 49.654 29.8776ZM58.4559 18.4856V29.7656H55.3199V18.4856H58.4559ZM67.4417 22.1976C67.2604 21.899 67.0097 21.6696 66.6897 21.5096C66.3804 21.3496 66.0124 21.2696 65.5857 21.2696C64.7964 21.2696 64.1724 21.5256 63.7137 22.0376C63.2657 22.5496 63.0417 23.2376 63.0417 24.1016C63.0417 25.0723 63.2817 25.8136 63.7617 26.3256C64.2524 26.827 64.9617 27.0776 65.8897 27.0776C66.9884 27.0776 67.7724 26.5816 68.2417 25.5896H65.0897V23.3336H70.9457V26.3736C70.7004 26.971 70.3377 27.531 69.8577 28.0536C69.3884 28.5763 68.7911 29.0083 68.0657 29.3496C67.3404 29.6803 66.5137 29.8456 65.5857 29.8456C64.4551 29.8456 63.4524 29.6056 62.5777 29.1256C61.7137 28.635 61.0417 27.9576 60.5617 27.0936C60.0924 26.219 59.8577 25.2216 59.8577 24.1016C59.8577 22.9923 60.0924 22.0056 60.5617 21.1416C61.0417 20.267 61.7137 19.5896 62.5777 19.1096C63.4417 18.619 64.4391 18.3736 65.5697 18.3736C66.9884 18.3736 68.1617 18.715 69.0897 19.3976C70.0177 20.0803 70.5937 21.0136 70.8177 22.1976H67.4417ZM82.7991 29.7656H79.6631L75.4871 23.4616V29.7656H72.3511V18.4856H75.4871L79.6631 24.8696V18.4856H82.7991V29.7656ZM91.7215 27.9256H87.7215L87.1135 29.7656H83.8175L87.9295 18.4856H91.5455L95.6415 29.7656H92.3295L91.7215 27.9256ZM90.9375 25.5256L89.7215 21.8776L88.5215 25.5256H90.9375ZM99.7996 27.3656H103.304V29.7656H96.6636V18.4856H99.7996V27.3656ZM55.494 33.4856V44.7656H52.358V40.2376H48.534V44.7656H45.398V33.4856H48.534V37.7256H52.358V33.4856H55.494ZM65.1606 33.4856V40.0296C65.1606 40.6376 65.2993 41.107 65.5766 41.4376C65.8646 41.7683 66.2966 41.9336 66.8726 41.9336C67.4486 41.9336 67.8806 41.7683 68.1686 41.4376C68.4673 41.0963 68.6166 40.627 68.6166 40.0296V33.4856H71.7526V40.0296C71.7526 41.0643 71.5339 41.9496 71.0966 42.6856C70.6593 43.411 70.0619 43.9603 69.3046 44.3336C68.5579 44.6963 67.7259 44.8776 66.8086 44.8776C65.8913 44.8776 65.0699 44.6963 64.3446 44.3336C63.6299 43.9603 63.0646 43.411 62.6486 42.6856C62.2433 41.9603 62.0406 41.075 62.0406 40.0296V33.4856H65.1606ZM88.7272 44.7656H85.5912L81.4152 38.4616V44.7656H78.2792V33.4856H81.4152L85.5912 39.8696V33.4856H88.7272V44.7656ZM103.81 33.4856V35.9816H100.802V44.7656H97.6656V35.9816H94.6896V33.4856H103.81Z" fill="white"/>
</g>
<defs>
<clipPath id="clip0_370_43">
<rect width="124" height="64" fill="white"/>
</clipPath>
</defs>
</svg>
